<svg width="30" height="29" viewBox="0 0 30 29" fill="none" xmlns="http://www.w3.org/2000/svg">
<path d="M1.83218 9.55671C1.96614 9.61209 2.11035 9.64347 2.25584 9.6484C2.65706 9.6484 3.02112 9.42257 3.18584 9.07059C3.53963 8.33034 3.9697 7.627 4.47091 6.97043C4.80035 6.536 4.70036 5.92743 4.24786 5.61176C4.24466 5.60992 4.24145 5.60746 4.23889 5.60561C3.79024 5.28194 3.15379 5.36809 2.81602 5.79883C2.81153 5.80436 2.80704 5.8099 2.8032 5.81606C2.2302 6.57785 1.7354 7.39133 1.32649 8.2448C1.09126 8.74138 1.31687 9.3278 1.83218 9.55733V9.55671Z" fill="white"/>
<path d="M6.50879 4.58105C6.72991 4.57798 6.94527 4.50906 7.12409 4.38414C7.79643 3.89618 8.52068 3.47836 9.28468 3.13685C9.79294 2.89994 10.0064 2.31352 9.76346 1.82433C9.51798 1.33575 8.90973 1.1253 8.39634 1.35175C7.51506 1.75849 6.67672 2.24645 5.89414 2.80887C5.441 3.135 5.34934 3.75219 5.68904 4.18724C5.8794 4.43891 6.18512 4.58598 6.50943 4.58105H6.50879Z" fill="white"/>
<path d="M1.13509 16.0278C1.69719 15.9866 2.11829 15.5171 2.07855 14.9775C2.06509 14.6889 2.05099 14.3997 2.05099 14.1111C2.05355 13.5886 2.09009 13.0668 2.16059 12.5487C2.23237 12.0084 1.83435 11.5149 1.27161 11.446C0.708873 11.3771 0.194844 11.7592 0.123059 12.2995C0.0410198 12.9001 0 13.5056 0 14.1111C0 14.4526 0.0134596 14.7806 0.0410198 15.1221C0.078194 15.6322 0.520439 16.0278 1.05305 16.0278H1.13509Z" fill="white"/>
<path d="M2.91249 18.5221C2.70868 18.0145 2.11453 17.7622 1.5864 17.9579C1.05827 18.1535 0.794848 18.724 0.998665 19.231C1.35438 20.1085 1.80368 20.949 2.33886 21.7385C2.63112 22.1933 3.25219 22.3342 3.72584 22.0536C3.73289 22.0493 3.73994 22.045 3.74763 22.0407C4.22385 21.7447 4.36421 21.1367 4.06233 20.6752C3.6015 19.9983 3.21694 19.2765 2.91378 18.5221H2.91249Z" fill="white"/>
<path d="M8.64188 24.7714C7.90224 24.3788 7.2017 23.9222 6.54987 23.406C6.11917 23.0577 5.47695 23.1106 5.11418 23.5241C4.75141 23.9376 4.80653 24.5542 5.23724 24.9025C5.98713 25.5117 6.79791 26.0482 7.65741 26.5042C8.15221 26.7614 8.77007 26.5854 9.03862 26.1104C9.31422 25.6354 9.13668 25.036 8.64188 24.7714Z" fill="white"/>
<path d="M14.6985 0C13.9986 0.00184602 13.2994 0.0498426 12.6065 0.144605C12.0476 0.226445 11.6586 0.721794 11.7317 1.26022C11.8131 1.74326 12.247 2.09893 12.7572 2.10016C12.8033 2.102 12.8494 2.09769 12.8937 2.08723C13.4917 2.00847 14.0948 1.96847 14.6985 1.96909C21.6834 1.96909 27.3461 7.40562 27.3461 14.1116C27.3461 20.8176 21.6834 26.2541 14.6985 26.2541C13.8538 26.2547 13.011 26.176 12.1829 26.0178C11.6278 25.9126 11.0894 26.2596 10.9798 26.7925C10.8702 27.3254 11.2317 27.8423 11.7868 27.9475C12.7456 28.1321 13.7211 28.2244 14.6992 28.2232C22.8173 28.2232 29.3977 21.9049 29.3977 14.1116C29.3977 6.31831 22.8166 0 14.6985 0Z" fill="white"/>
<path d="M3.76029 14.1113C3.76029 19.9115 8.65767 24.6133 14.6991 24.6133C20.7406 24.6133 25.6379 19.9115 25.6379 14.1113C25.6379 8.31106 20.7399 3.60986 14.6985 3.60986C8.65703 3.60986 3.76029 8.31168 3.76029 14.1113ZM13.673 8.86056C13.673 8.3166 14.1319 7.87602 14.6985 7.87602C15.2651 7.87602 15.724 8.3166 15.724 8.86056V13.5076L17.898 14.5445C18.4018 14.7851 18.6075 15.3715 18.3569 15.8551C18.3544 15.8601 18.3518 15.865 18.3492 15.8699C18.173 16.2003 17.8192 16.4077 17.4333 16.4083C17.2725 16.4046 17.1142 16.3689 16.9687 16.3031L14.2338 14.9906C13.8915 14.8201 13.6755 14.4817 13.673 14.1113V8.86056Z" fill="white"/>
</svg>