<svg width="77" height="72" viewBox="0 0 77 72" fill="none" xmlns="http://www.w3.org/2000/svg">
<path d="M42.8019 59.4471C59.8751 59.4471 73.7144 46.6731 73.7144 30.9125C73.7144 15.1519 59.8751 2.37793 42.8019 2.37793C25.7287 2.37793 11.8894 15.1519 11.8894 30.9125C11.8894 30.9125 14.1199 45.1798 2.37789 45.1798C2.37789 57.0692 23.7788 59.4471 42.8019 59.4471Z" fill="#BBDEFB"/>
<path d="M42.8019 61.8249C14.001 61.8249 0 56.3796 0 45.1798C0 43.8672 1.06529 42.8019 2.37788 42.8019C4.73674 42.8019 6.45833 42.1266 7.64251 40.7474C10.4199 37.4992 9.54957 31.3405 9.54006 31.2787C9.51153 13.8678 24.4446 0 42.8019 0C61.1544 0 76.0922 13.8678 76.0922 30.9125C76.0922 47.9571 61.1544 61.8249 42.8019 61.8249ZM5.1172 47.3103C7.38095 53.7068 20.2976 57.0692 42.8019 57.0692C58.5387 57.0692 71.3365 45.3319 71.3365 30.9125C71.3365 16.4882 58.5387 4.75576 42.8019 4.75576C27.0651 4.75576 14.2673 16.4882 14.2673 30.9125C14.2958 30.9125 15.48 38.9069 11.2569 43.8386C9.68274 45.6744 7.62825 46.8395 5.1172 47.3103Z" fill="#455A64"/>
<path d="M52.3134 71.3365C57.5665 71.3365 61.825 67.0781 61.825 61.825C61.825 56.5719 57.5665 52.3135 52.3134 52.3135C47.0604 52.3135 42.8019 56.5719 42.8019 61.825C42.8019 67.0781 47.0604 71.3365 52.3134 71.3365Z" fill="#37474F"/>
<path d="M23.7788 71.3365C29.0319 71.3365 33.2904 67.0781 33.2904 61.825C33.2904 56.5719 29.0319 52.3135 23.7788 52.3135C18.5258 52.3135 14.2673 56.5719 14.2673 61.825C14.2673 67.0781 18.5258 71.3365 23.7788 71.3365Z" fill="#37474F"/>
<path d="M33.3855 26.1566C32.0729 26.1566 30.9838 25.0914 30.9838 23.7788C30.9838 22.4662 32.0253 21.4009 33.3379 21.4009H33.3855C34.698 21.4009 35.7633 22.4662 35.7633 23.7788C35.7633 25.0914 34.698 26.1566 33.3855 26.1566Z" fill="#455A64"/>
<path d="M52.4085 26.1566C51.1007 26.1566 50.0069 25.0914 50.0069 23.7788C50.0069 22.4662 51.0484 21.4009 52.361 21.4009H52.4085C53.7211 21.4009 54.7864 22.4662 54.7864 23.7788C54.7864 25.0914 53.7211 26.1566 52.4085 26.1566Z" fill="#455A64"/>
<path d="M42.8019 47.5578C35.9441 47.5578 30.0992 42.8876 28.5917 36.1915C28.3063 34.9075 29.11 33.6377 30.3893 33.3476C31.6734 33.0717 32.9432 33.8612 33.2333 35.1453C34.2463 39.6537 38.184 42.802 42.8019 42.802C47.4245 42.802 51.3575 39.6537 52.3705 35.1453C52.6653 33.866 53.9209 33.0622 55.2144 33.3476C56.4985 33.6377 57.3022 34.9075 57.0169 36.1915C55.5093 42.8829 49.6644 47.5578 42.8019 47.5578Z" fill="#455A64"/>
</svg>