<svg width="49" height="50" viewBox="0 0 49 50" fill="none" xmlns="http://www.w3.org/2000/svg">
<path d="M0.911807 49.3396H0.368135C-0.0396195 49.0291 -0.073599 48.6497 0.0962985 48.2012C1.35354 44.4757 2.61078 40.7156 3.86802 36.9901C4.03792 36.4382 4.03792 36.0242 3.73211 35.5068C1.2516 30.8844 0.368135 25.9515 1.04772 20.7426C1.62538 16.3962 3.29037 12.4982 6.04271 9.08308C10.562 3.52927 16.3725 0.493653 23.4742 0.0452085C27.3818 -0.196261 31.1875 0.528148 34.7214 2.25293C42.2309 5.94397 46.7841 11.9807 48.2453 20.3632C48.3472 21.0186 48.4491 21.674 48.5171 22.3294V25.71C48.5171 25.71 48.4491 25.917 48.4152 26.0205C48.2113 28.8491 47.5317 31.5743 46.2744 34.127C42.095 42.5784 35.333 47.2353 26.0566 47.9942C21.7752 48.3392 17.6977 47.4078 13.858 45.4416C13.5182 45.2691 13.2464 45.2346 12.8726 45.3726C9.8824 46.3384 6.8922 47.3043 3.93598 48.2702C2.9166 48.6152 1.89721 48.8566 0.911807 49.3051V49.3396ZM7.46985 41.785C7.70771 41.854 7.84363 41.7505 8.01352 41.716C9.81444 41.1641 11.5814 40.5777 13.3823 39.9912C13.824 39.8532 14.1978 39.8877 14.5716 40.1292C16.9501 41.647 19.5326 42.5784 22.3529 42.9579C25.1052 43.3028 27.7896 43.0613 30.406 42.199C33.6681 41.1641 36.4544 39.3358 38.731 36.7486C41.5173 33.6095 43.1144 29.9185 43.4881 25.7445C43.8619 21.605 42.9445 17.707 40.7358 14.1884C37.4398 8.9106 32.6826 5.94397 26.6003 5.21956C23.0325 4.80562 19.6005 5.42654 16.4065 7.04784C11.3435 9.60052 7.97954 13.671 6.45047 19.2248C5.66894 21.9845 5.63496 24.7441 6.11067 27.5383C6.58638 30.1945 7.57179 32.6436 9.13485 34.8169C9.47464 35.3343 9.5426 35.7828 9.33872 36.3347C9.06689 37.0246 8.86301 37.749 8.62515 38.4734C8.25138 39.5773 7.87761 40.7156 7.50383 41.8195L7.46985 41.785Z" fill="#2D4223"/>
<path d="M37.1343 30.0905C37.1343 33.5055 34.4499 35.2648 31.9694 35.5753C30.3384 35.7823 28.7753 35.2993 27.2463 34.8509C22.2513 33.3331 18.5815 30.056 15.6253 25.8475C14.6059 24.3987 13.5865 22.9154 13.1108 21.1561C12.4652 18.7759 12.6691 16.5337 14.1302 14.4639C14.8098 13.498 15.7952 13.1531 16.8825 12.9806C17.3922 12.8771 17.9019 12.7391 18.4116 12.8081C18.9893 12.8771 19.397 13.2221 19.6349 13.705C20.4164 15.3608 21.062 17.0511 21.7416 18.7414C22.0474 19.5003 21.6397 20.1212 21.2319 20.7076C20.8921 21.1906 20.4843 21.639 20.0766 22.122C19.9747 22.2599 19.8727 22.3634 20.0086 22.5704C21.9455 25.3301 24.2901 27.6758 27.4162 29.0211C27.722 29.1591 27.8579 29.0901 28.0618 28.8486C28.5715 28.1932 29.1151 27.5378 29.6248 26.8824C30.2025 26.158 30.7122 25.951 31.5617 26.3304C33.2267 27.0548 34.8577 27.8482 36.4547 28.7106C37.0324 29.0211 37.1343 29.5385 37.1003 30.1595L37.1343 30.0905Z" fill="#2D4223"/>
</svg>