<svg width="71" height="71" viewBox="0 0 71 71" fill="none" xmlns="http://www.w3.org/2000/svg">
<path d="M66.8398 50.4183V43.8203C66.8398 36.9716 64.6315 30.4619 60.4536 24.9952C56.7451 20.1426 51.6176 16.4211 45.8926 14.3947C45.7333 11.0947 42.999 8.45898 39.6602 8.45898H31.3398C28.001 8.45898 25.2667 11.0947 25.1074 14.3947C19.3824 16.4211 14.2549 20.1426 10.5464 24.9952C6.36851 30.4619 4.16016 36.9716 4.16016 43.8203V50.4183C1.73908 51.277 0 53.5891 0 56.3008C0 59.7416 2.79937 62.541 6.24023 62.541H64.7598C68.2006 62.541 71 59.7416 71 56.3008C71 53.5891 69.2609 51.277 66.8398 50.4183ZM8.32031 43.8203C8.32031 36.3194 11.5245 29.2975 16.7793 24.2877V31.3398C16.7793 32.4886 17.7106 33.4199 18.8594 33.4199C20.0081 33.4199 20.9395 32.4886 20.9395 31.3398V21.025C22.2502 20.1883 23.6404 19.4583 25.0996 18.8508V35.5C25.0996 36.6488 26.0309 37.5801 27.1797 37.5801C28.3284 37.5801 29.2598 36.6488 29.2598 35.5V15.9378C29.2599 15.9322 29.2598 15.9265 29.2598 15.9208V14.6992C29.2598 13.5523 30.1929 12.6191 31.3398 12.6191H39.6602C40.8071 12.6191 41.7402 13.5523 41.7402 14.6992V15.9202C41.7402 15.9262 41.7401 15.932 41.7402 15.938V35.5C41.7402 36.6488 42.6716 37.5801 43.8203 37.5801C44.9691 37.5801 45.9004 36.6488 45.9004 35.5V18.8508C47.3596 19.4584 48.7498 20.1884 50.0605 21.025V31.3398C50.0605 32.4886 50.9919 33.4199 52.1406 33.4199C53.2894 33.4199 54.2207 32.4886 54.2207 31.3398V24.2877C59.4755 29.2975 62.6797 36.3194 62.6797 43.8203V50.0605H8.32031V43.8203ZM64.7598 58.3809H6.24023C5.09328 58.3809 4.16016 57.4477 4.16016 56.3008C4.16016 55.1538 5.09328 54.2207 6.24023 54.2207H64.7598C65.9067 54.2207 66.8398 55.1538 66.8398 56.3008C66.8398 57.4477 65.9067 58.3809 64.7598 58.3809Z" fill="white"/>
</svg>